<?xml version="1.0"?><svg width="1000" height="1000" xmlns="http://www.w3.org/2000/svg">
 <title>black bear</title>
 <metadata id="metadata2574">image/svg+xmlCute Teddy with a speech bubble2008-11-23Thorsten Pankninteddycutespeech ballooncomicbearA cute teddy bear with an empty speech bubble</metadata>
 <g>
  <title>Layer 1</title>
  <g externalResourcesRequired="false" id="svg_1">
   <path id="path2525" d="m334.931335,403.567719c0,0 -160.988663,194.834259 -130.51442,283.311798c11.544464,33.517944 105.048141,54.115723 105.048141,54.115723" stroke-dashoffset="0" stroke-miterlimit="4" marker-end="none" marker-mid="none" marker-start="none" stroke-linecap="round" stroke-width="5.613396" stroke="#000000" fill-rule="nonzero" fill="#000000"/>
   <rect id="rect2527" width="108.30158" height="118.64194" x="576.301745" y="29.696586" stroke-dashoffset="0" stroke-miterlimit="4" stroke-linecap="round" stroke-width="5.613396" fill-rule="nonzero" fill="#000000" transform="matrix(2.3983 0 0 2.3983 -1068.91 313.795)"/>
   <path d="m553.922241,403.567719c0,0 160.98877,194.834259 130.514465,283.311798c-11.544495,33.517944 -105.048096,54.115723 -105.048096,54.115723" id="path2529" stroke-dashoffset="0" stroke-miterlimit="4" marker-end="none" marker-mid="none" marker-start="none" stroke-linecap="round" stroke-width="5.613396" stroke="#000000" fill-rule="nonzero" fill="#000000"/>
   <path id="path2531" d="m293.032959,546.865784c0,0 -11.12146,111.604187 -12.362732,159.616699c-1.243103,48.075867 -6.927643,131.439819 4.103027,160.253906c7.508759,19.61438 68.574585,21.255859 68.574585,21.255859c0,0 48.834381,-2.91333 61.779663,-16.209717c22.157837,-22.75824 9.578613,-105.443237 9.578613,-105.443237l42.536774,1.646729c0,0 -12.322174,74.682373 5.83371,97.794373c12.376526,15.755005 43.52533,26.825195 63.47998,28.616882c19.528198,1.753296 54.717529,-0.216858 65.236633,-16.762939c10.205078,-16.052307 5.897949,-125.061279 2.788818,-178.539124c-2.960083,-50.911499 -22.335083,-168.517944 -22.335083,-168.517944" stroke-dashoffset="0" stroke-miterlimit="4" marker-end="none" marker-mid="none" marker-start="none" stroke-linecap="round" stroke-width="5.613396" stroke="#000000" fill-rule="nonzero" fill="#000000"/>
   <path id="path2533" d="m366.39798,746.11853c0,0 40.761597,22.289978 80.156372,23.81488c38.019287,1.471802 75.480927,-32.906372 75.480927,-32.906372" stroke-dashoffset="0" stroke-miterlimit="4" marker-end="none" marker-mid="none" marker-start="none" stroke-linecap="round" stroke-width="5.613396" stroke="#000000" fill-rule="nonzero" fill="#000000"/>
   <path d="m346.90094,629.115112c-31.531281,-92.076416 24.862732,-124.47937 79.066711,-129.708221c97.454163,-9.401184 112.77948,57.375458 107.738403,105.935394c-3.804626,36.648193 -27.711609,120.965942 -83.063751,125.613831c-72.413727,6.080994 -87.953491,-55.737183 -103.741364,-101.841003z" id="path2535" stroke-width="1px" stroke="#000000" fill-rule="evenodd" fill="#ffffff"/>
   <path id="path2537" d="m437.232239,55.529999c-66.7211,0 -127.010223,27.679306 -169.966461,72.220314c-14.168015,-17.166298 -35.617538,-28.186134 -59.598984,-28.186134c-42.634995,0 -77.269791,34.634796 -77.269791,77.269791c0,41.397598 32.69783,75.201935 73.624283,77.129379c-1.965546,12.254883 -2.945938,24.776215 -2.945938,37.58313c0,130.341614 105.815247,236.156891 236.156891,236.156891c130.341614,0 236.15686,-105.815277 236.15686,-236.156891c0,-11.44342 -0.806702,-22.648865 -2.384338,-33.656799c2.950684,0.40213 5.915649,0.561584 8.975769,0.561584c36.543274,0 66.19043,-29.647232 66.19043,-66.19046c0,-36.545624 -29.647156,-66.192856 -66.19043,-66.192856c-21.378174,0 -40.341003,10.203659 -52.448364,25.944595c-42.999084,-58.47348 -112.185364,-96.482544 -190.299927,-96.482544z" stroke-dashoffset="0" stroke-miterlimit="4" marker-end="none" marker-mid="none" marker-start="none" stroke-linecap="round" stroke-width="5.613396" stroke="#000000" fill-rule="nonzero" fill="#000000"/>
   <path d="m379.910889,312.734467c0.004425,21.331543 -17.287048,38.626587 -38.618683,38.626587c-21.331573,0 -38.623047,-17.295044 -38.618683,-38.626587c-0.004364,-21.331665 17.287109,-38.626678 38.618683,-38.626678c21.331635,0 38.623108,17.295013 38.618683,38.626678z" id="path2539" stroke-dashoffset="0" stroke-miterlimit="4" marker-end="none" marker-mid="none" marker-start="none" stroke-width="1px" stroke="#000000" fill-rule="nonzero" fill="#ffffff"/>
   <path id="path2541" d="m563.073853,303.907318c0.004333,21.331573 -17.287109,38.626587 -38.618652,38.626587c-21.331665,0 -38.623138,-17.295013 -38.618713,-38.626587c-0.004425,-21.331635 17.287048,-38.626709 38.618713,-38.626709c21.331543,0 38.622986,17.295074 38.618652,38.626709z" stroke-dashoffset="0" stroke-miterlimit="4" marker-end="none" marker-mid="none" marker-start="none" stroke-width="1px" stroke="#000000" fill-rule="nonzero" fill="#ffffff"/>
   <path id="path2543" d="m675.685364,161.770264c-16.244629,0 -30.147583,10.072205 -35.90033,24.260727c8.639648,15.668442 15.547974,32.484116 20.474426,50.064117c4.711121,2.039352 9.968384,3.08522 15.425903,3.08522c21.384399,0 38.705078,-17.320526 38.705078,-38.704956c0,-21.38443 -17.320679,-38.705032 -38.705078,-38.705109l0,0z" stroke-dashoffset="0" stroke-miterlimit="4" marker-end="none" marker-mid="none" marker-start="none" stroke-width="2" stroke="#000000" fill-rule="evenodd" fill="#ffffff"/>
   <path id="path2545" d="m212.125641,137.817001c-24.443069,0 -44.314407,19.871353 -44.314407,44.314453c0,24.443115 19.871338,44.314529 44.314407,44.314453c1.38942,0 2.850296,-0.155029 4.207123,-0.280457c7.604523,-24.220276 19.152039,-46.726379 33.656616,-66.89241c-7.76915,-12.78183 -21.822906,-21.455994 -37.863739,-21.456039z" stroke-dashoffset="0" stroke-miterlimit="4" marker-end="none" marker-mid="none" marker-start="none" stroke-width="2" stroke="#000000" fill-rule="evenodd" fill="#ffffff"/>
   <path id="path2547" d="m427.577393,335.684692c86.509277,0 106.862305,78.633759 92.684875,122.47644c-8.75647,27.078949 -62.344116,30.24826 -90.698669,27.805481c-31.061737,-2.675934 -84.615845,-16.890015 -92.684906,-47.004517c-15.914551,-59.393768 49.463776,-103.277405 90.6987,-103.277405z" stroke-dashoffset="0" stroke-miterlimit="4" marker-end="none" marker-mid="none" marker-start="none" stroke-width="2" stroke="#000000" fill-rule="nonzero" fill="#ffffff"/>
   <path id="path2549" d="m433.039154,419.101135c14.029572,-1.510101 29.580292,-27.662476 23.833435,-40.549622c-3.85907,-8.653412 -21.549225,-7.469879 -30.950195,-6.289398c-8.262878,1.037598 -23.44101,3.900085 -24.991913,12.082153c-2.643768,13.947083 17.994781,36.276001 32.108673,34.756866z" stroke-dashoffset="0" stroke-miterlimit="4" marker-end="none" marker-mid="none" marker-start="none" stroke-width="2" stroke="#000000" fill-rule="nonzero" fill="#000000"/>
   <path d="m501.407318,438.939087l-76.761475,12.775787c2.809052,11.626038 21.596985,17.651886 42.479675,13.521118c19.485443,-3.85434 33.916107,-15.186554 34.281799,-26.296906z" id="path2551" stroke-dashoffset="0" stroke-miterlimit="4" marker-end="none" marker-mid="none" marker-start="none" stroke-width="2" stroke="#000000" fill-rule="evenodd" fill="#000000"/>
   <path id="path2553" d="m376.992889,317.841034c0.003204,15.287323 -12.388794,27.681885 -27.676147,27.681885c-15.287323,0 -27.679352,-12.394562 -27.676147,-27.681885c-0.003204,-15.287415 12.388824,-27.681885 27.676147,-27.681885c15.287354,0 27.679352,12.39447 27.676147,27.681885z" stroke-dashoffset="0" stroke-miterlimit="4" marker-end="none" marker-mid="none" marker-start="none" stroke-width="1px" stroke="#000000" fill-rule="nonzero" fill="#000000"/>
   <path d="m544.778198,312.005005c0.003174,15.287323 -12.388794,27.681793 -27.676147,27.681793c-15.287323,0 -27.67926,-12.39447 -27.676147,-27.681793c-0.003113,-15.287384 12.388824,-27.681885 27.676147,-27.681885c15.287354,0 27.679321,12.394501 27.676147,27.681885z" id="path2555" stroke-dashoffset="0" stroke-miterlimit="4" marker-end="none" marker-mid="none" marker-start="none" stroke-width="1px" stroke="#000000" fill-rule="nonzero" fill="#000000"/>
  </g>
 </g>
</svg>